<svg width="218" height="33" viewBox="0 0 218 33" fill="none" xmlns="http://www.w3.org/2000/svg">
<path d="M10.3688 14.7398C11.5632 15.9342 13.1194 16.5132 14.6756 16.477C16.1957 16.477 17.7157 15.898 18.8738 14.7398C19.5253 14.0884 19.5253 13.0388 18.8738 12.3874L14.6756 8.18913L14.1689 7.68244C10.9117 4.42519 5.66396 4.42519 2.44292 7.68244C-0.814307 10.9397 -0.814307 16.1875 2.44292 19.4086C2.69626 19.6619 3.09437 19.6619 3.34771 19.4086L8.05259 14.7036C8.66785 14.0884 9.7174 14.0884 10.3688 14.7398Z" fill="#F73481"/>
<path d="M31.5071 12.3873L22.1336 2.97748C21.4821 2.32603 20.4326 2.32603 19.7811 2.97748L15.981 6.77761C15.7277 7.03096 15.7277 7.42906 15.981 7.68241L19.6002 11.3016C20.8307 12.5321 20.8307 14.5588 19.6002 15.8255C18.2249 17.2008 16.4515 17.8523 14.6781 17.8885C12.8686 17.8885 11.059 17.2008 9.64752 15.8255C9.39418 15.5722 8.99607 15.5722 8.74273 15.8255L4.97882 19.5895C4.32737 20.2409 4.32737 21.2905 4.97882 21.9419L13.4476 30.4108C13.7733 30.7365 14.2438 30.9175 14.6781 30.8813C15.0762 30.8813 15.4743 30.7003 15.8001 30.4108L31.5071 14.7036C32.1586 14.0883 32.1586 13.0388 31.5071 12.3873Z" fill="#1325B9"/>
<path d="M31.5071 12.3873L22.1336 2.97748C21.4821 2.32603 20.4326 2.32603 19.7811 2.97748L15.981 6.77761C15.7277 7.03096 15.7277 7.42906 15.981 7.68241L19.6002 11.3016C20.8307 12.5321 20.8307 14.5588 19.6002 15.8255C18.2249 17.2008 16.4515 17.8523 14.6781 17.8885C12.8686 17.8885 11.059 17.2008 9.64752 15.8255C9.39418 15.5722 8.99607 15.5722 8.74273 15.8255L4.97882 19.5895C4.32737 20.2409 4.32737 21.2905 4.97882 21.9419L13.4476 30.4108C13.7733 30.7365 14.2438 30.9175 14.6781 30.8813C15.0762 30.8813 15.4743 30.7003 15.8001 30.4108L31.5071 14.7036C32.1586 14.0883 32.1586 13.0388 31.5071 12.3873Z" fill="black" fill-opacity="0.2"/>
<path d="M58.1133 3.95328V26.2895H54.3194L43.7414 10.5174H43.6967V26.2895H39.9922V3.95328H43.6967L54.3641 19.9989H54.4533V3.95328H58.1133ZM96.5871 10.6997C99.8899 10.6997 101.854 12.7966 101.854 17.4006V26.2895H98.417V18.3123C98.417 15.5316 97.5244 13.9362 95.4712 13.9362C93.552 13.9362 91.9899 15.6684 91.9899 18.6769V26.335H88.5531V18.3578C88.5531 15.5772 87.6158 13.9818 85.5627 13.9818C83.5096 13.9818 81.9474 15.714 81.9474 18.7225V26.3806H78.5106V10.9276H81.9474V13.0245H81.992C83.2418 11.4746 84.9378 10.6541 86.6785 10.6541C88.687 10.6541 90.2492 11.4746 91.1418 13.2068H91.1865C92.4808 11.6114 94.4 10.6997 96.5871 10.6997ZM108.817 26.5174C106.228 26.5174 104.621 24.8308 104.621 21.412V5.45755H108.058V10.9276H112.476V13.9362H108.058V21.0929C108.058 22.6427 108.549 23.2353 109.486 23.2353C110.066 23.2353 111.405 22.9618 112.476 22.3236V25.6969C111.584 26.1983 110.78 26.5174 108.817 26.5174ZM128.411 10.9276V26.2439H125.108V24.1926H125.063C123.947 25.6513 122.34 26.4718 120.287 26.4718C116.136 26.4718 113.012 23.3721 113.012 18.6313C113.012 13.9818 116.136 10.6541 120.243 10.6541C122.162 10.6541 123.769 11.3379 124.885 12.7054H124.929V10.8821L128.411 10.9276ZM125.063 18.6769C125.063 15.9419 123.278 13.8906 120.823 13.8906C118.413 13.8906 116.493 15.714 116.493 18.6769C116.493 21.412 118.279 23.3265 120.823 23.3265C123.144 23.3265 125.063 21.4576 125.063 18.6769ZM144.969 10.9276L136.712 32.4889H133.097L135.82 25.4234L129.705 10.9276H133.32L137.471 21.2752H137.516L141.399 10.9276H144.969ZM75.7434 10.9276V26.2439H72.4405V24.1926H72.3959C71.2801 25.6513 69.6733 26.4718 67.6201 26.4718C63.4692 26.4718 60.3449 23.3721 60.3449 18.6313C60.3449 13.9818 63.4692 10.6541 67.5755 10.6541C69.4947 10.6541 71.1015 11.3379 72.2174 12.7054H72.262V10.8821H75.7434V10.9276ZM68.3343 9.51453C65.8794 9.51453 63.737 7.87351 63.5139 4.91054H66.2365C66.3258 6.09573 67.0845 7.05299 68.3343 7.05299C69.5394 7.05299 70.3428 6.1869 70.432 4.91054H73.1547C72.9315 7.6 71.0569 9.51453 68.3343 9.51453ZM72.3959 18.6769C72.3959 15.9419 70.6106 13.8906 68.1557 13.8906C65.7455 13.8906 63.8263 15.714 63.8263 18.6769C63.8263 21.412 65.6116 23.3265 68.1557 23.3265C70.4767 23.3265 72.3959 21.4576 72.3959 18.6769ZM69.0038 4.4547H65.9687L69.0484 0.488892H72.3513L69.0038 4.4547Z" fill="#1325B9"/>
<path d="M58.1133 3.95328V26.2895H54.3194L43.7414 10.5174H43.6967V26.2895H39.9922V3.95328H43.6967L54.3641 19.9989H54.4533V3.95328H58.1133ZM96.5871 10.6997C99.8899 10.6997 101.854 12.7966 101.854 17.4006V26.2895H98.417V18.3123C98.417 15.5316 97.5244 13.9362 95.4712 13.9362C93.552 13.9362 91.9899 15.6684 91.9899 18.6769V26.335H88.5531V18.3578C88.5531 15.5772 87.6158 13.9818 85.5627 13.9818C83.5096 13.9818 81.9474 15.714 81.9474 18.7225V26.3806H78.5106V10.9276H81.9474V13.0245H81.992C83.2418 11.4746 84.9378 10.6541 86.6785 10.6541C88.687 10.6541 90.2492 11.4746 91.1418 13.2068H91.1865C92.4808 11.6114 94.4 10.6997 96.5871 10.6997ZM108.817 26.5174C106.228 26.5174 104.621 24.8308 104.621 21.412V5.45755H108.058V10.9276H112.476V13.9362H108.058V21.0929C108.058 22.6427 108.549 23.2353 109.486 23.2353C110.066 23.2353 111.405 22.9618 112.476 22.3236V25.6969C111.584 26.1983 110.78 26.5174 108.817 26.5174ZM128.411 10.9276V26.2439H125.108V24.1926H125.063C123.947 25.6513 122.34 26.4718 120.287 26.4718C116.136 26.4718 113.012 23.3721 113.012 18.6313C113.012 13.9818 116.136 10.6541 120.243 10.6541C122.162 10.6541 123.769 11.3379 124.885 12.7054H124.929V10.8821L128.411 10.9276ZM125.063 18.6769C125.063 15.9419 123.278 13.8906 120.823 13.8906C118.413 13.8906 116.493 15.714 116.493 18.6769C116.493 21.412 118.279 23.3265 120.823 23.3265C123.144 23.3265 125.063 21.4576 125.063 18.6769ZM144.969 10.9276L136.712 32.4889H133.097L135.82 25.4234L129.705 10.9276H133.32L137.471 21.2752H137.516L141.399 10.9276H144.969ZM75.7434 10.9276V26.2439H72.4405V24.1926H72.3959C71.2801 25.6513 69.6733 26.4718 67.6201 26.4718C63.4692 26.4718 60.3449 23.3721 60.3449 18.6313C60.3449 13.9818 63.4692 10.6541 67.5755 10.6541C69.4947 10.6541 71.1015 11.3379 72.2174 12.7054H72.262V10.8821H75.7434V10.9276ZM68.3343 9.51453C65.8794 9.51453 63.737 7.87351 63.5139 4.91054H66.2365C66.3258 6.09573 67.0845 7.05299 68.3343 7.05299C69.5394 7.05299 70.3428 6.1869 70.432 4.91054H73.1547C72.9315 7.6 71.0569 9.51453 68.3343 9.51453ZM72.3959 18.6769C72.3959 15.9419 70.6106 13.8906 68.1557 13.8906C65.7455 13.8906 63.8263 15.714 63.8263 18.6769C63.8263 21.412 65.6116 23.3265 68.1557 23.3265C70.4767 23.3265 72.3959 21.4576 72.3959 18.6769ZM69.0038 4.4547H65.9687L69.0484 0.488892H72.3513L69.0038 4.4547Z" fill="black" fill-opacity="0.2"/>
</svg>
