<svg width="176" height="41" viewBox="0 0 176 41" fill="none" xmlns="http://www.w3.org/2000/svg">
<path d="M15.1604 16.9027C16.8118 18.5538 18.9636 19.3543 21.1154 19.3042C23.2171 19.3042 25.3189 18.5037 26.9202 16.9027C27.821 16.0022 27.821 14.5513 26.9202 13.6507L21.1154 7.84708L20.4148 7.14664C15.9111 2.64383 8.65501 2.64383 4.2013 7.14664C-0.302452 11.6495 -0.302452 18.904 4.2013 23.3568C4.55159 23.707 5.10205 23.707 5.45234 23.3568L11.9578 16.8527C12.8085 16.0022 14.2597 16.0022 15.1604 16.9027Z" fill="white"/>
<path d="M44.3847 13.6507L31.4239 0.692573C30.5232 -0.20799 29.072 -0.20799 28.1712 0.692573L22.9168 5.94586C22.5665 6.29608 22.5665 6.84642 22.9168 7.19664L27.921 12.1998C29.6224 13.9008 29.6224 16.7026 27.921 18.4537C26.0194 20.3549 23.5674 21.2554 21.1153 21.3055C18.6132 21.3055 16.1111 20.3549 14.1595 18.4537C13.8092 18.1035 13.2588 18.1035 12.9085 18.4537L7.70413 23.6069C6.80338 24.5075 6.80338 25.9584 7.70413 26.8589L19.4139 38.5662C19.8643 39.0165 20.5148 39.2667 21.1153 39.2166C21.6658 39.2166 22.2162 38.9665 22.6666 38.5662L44.3847 16.8527C45.2855 16.0021 45.2855 14.5512 44.3847 13.6507Z" fill="white"/>
<path d="M77.8126 8.69752V33.2128H73.5591L61.6992 15.902H61.6492V33.2128H57.4957V8.69752H61.6492L73.6092 26.3085H73.7092V8.69752H77.8126ZM120.949 16.1021C124.652 16.1021 126.854 18.4036 126.854 23.4567V33.2128H123V24.4574C123 21.4055 121.999 19.6544 119.698 19.6544C117.546 19.6544 115.794 21.5556 115.794 24.8576V33.2629H111.941V24.5074C111.941 21.4555 110.89 19.7044 108.588 19.7044C106.286 19.7044 104.535 21.6056 104.535 24.9077V33.3129H100.682V16.3523H104.535V18.6537H104.585C105.986 16.9527 107.888 16.0521 109.839 16.0521C112.091 16.0521 113.843 16.9527 114.843 18.8539H114.894C116.345 17.1028 118.497 16.1021 120.949 16.1021ZM134.66 33.463C131.758 33.463 129.956 31.6118 129.956 27.8595V10.3485H133.809V16.3523H138.763V19.6544H133.809V27.5093C133.809 29.2103 134.36 29.8607 135.411 29.8607C136.061 29.8607 137.562 29.5606 138.763 28.8601V32.5624C137.763 33.1128 136.862 33.463 134.66 33.463ZM156.628 16.3523V33.1628H152.925V30.9114H152.875C151.624 32.5124 149.823 33.413 147.521 33.413C142.867 33.413 139.364 30.0108 139.364 24.8076C139.364 19.7044 142.867 16.0521 147.471 16.0521C149.622 16.0521 151.424 16.8026 152.675 18.3035H152.725V16.3023L156.628 16.3523ZM152.875 24.8576C152.875 21.8557 150.874 19.6043 148.121 19.6043C145.419 19.6043 143.267 21.6056 143.267 24.8576C143.267 27.8595 145.269 29.9608 148.121 29.9608C150.723 29.9608 152.875 27.9095 152.875 24.8576ZM175.194 16.3523L165.936 40.0171H161.883L164.935 32.2623L158.08 16.3523H162.133L166.787 27.7094H166.837L171.19 16.3523H175.194ZM97.5791 16.3523V33.1628H93.876V30.9114H93.826C92.5749 32.5124 90.7735 33.413 88.4715 33.413C83.8177 33.413 80.3147 30.0108 80.3147 24.8076C80.3147 19.7044 83.8177 16.0521 88.4215 16.0521C90.5733 16.0521 92.3748 16.8026 93.6258 18.3035H93.6759V16.3023H97.5791V16.3523ZM89.2722 14.8013C86.5199 14.8013 84.1179 13.0002 83.8677 9.74817H86.9202C87.0203 11.049 87.871 12.0996 89.2722 12.0996C90.6233 12.0996 91.5241 11.1491 91.6242 9.74817H94.6767C94.4265 12.7 92.3247 14.8013 89.2722 14.8013ZM93.826 24.8576C93.826 21.8557 91.8243 19.6043 89.072 19.6043C86.3698 19.6043 84.218 21.6056 84.218 24.8576C84.218 27.8595 86.2196 29.9608 89.072 29.9608C91.6742 29.9608 93.826 27.9095 93.826 24.8576ZM90.0228 9.24786H86.62L90.0729 4.89514H93.776L90.0228 9.24786Z" fill="white"/>
</svg>
